<svg viewBox="0 0 700 200" xmlns="http://www.w3.org/2000/svg">
  <rect width="700" height="200" fill="#f0f4f8" rx="8"/>
  <text x="350" y="25" font-size="12" fill="#1B3A5C" text-anchor="middle" font-family="sans-serif" font-weight="700">FITNESS FOR USE — QUALITY DIMENSIONS</text>
  <!-- Three domains -->
  <rect x="30" y="45" width="200" height="130" rx="8" fill="white" stroke="#1B3A5C" stroke-width="1.5"/>
  <rect x="30" y="45" width="200" height="28" rx="8" fill="#1B3A5C"/>
  <text x="130" y="64" fill="white" font-size="10" text-anchor="middle" font-family="sans-serif" font-weight="700">UTILITY</text>
  <text x="130" y="92" fill="#4a5568" font-size="9" text-anchor="middle" font-family="sans-serif">Relevance</text>
  <text x="130" y="107" fill="#4a5568" font-size="9" text-anchor="middle" font-family="sans-serif">Timeliness</text>
  <text x="130" y="122" fill="#4a5568" font-size="9" text-anchor="middle" font-family="sans-serif">Accessibility</text>
  <text x="130" y="137" fill="#4a5568" font-size="9" text-anchor="middle" font-family="sans-serif">Granularity</text>

  <rect x="250" y="45" width="200" height="130" rx="8" fill="white" stroke="#2C5F8A" stroke-width="1.5"/>
  <rect x="250" y="45" width="200" height="28" rx="8" fill="#2C5F8A"/>
  <text x="350" y="64" fill="white" font-size="10" text-anchor="middle" font-family="sans-serif" font-weight="700">OBJECTIVITY</text>
  <text x="350" y="92" fill="#4a5568" font-size="9" text-anchor="middle" font-family="sans-serif">Accuracy</text>
  <text x="350" y="107" fill="#4a5568" font-size="9" text-anchor="middle" font-family="sans-serif">Coherence</text>
  <text x="350" y="122" fill="#4a5568" font-size="9" text-anchor="middle" font-family="sans-serif">Comparability</text>

  <rect x="470" y="45" width="200" height="130" rx="8" fill="white" stroke="#3D85C6" stroke-width="1.5"/>
  <rect x="470" y="45" width="200" height="28" rx="8" fill="#3D85C6"/>
  <text x="570" y="64" fill="white" font-size="10" text-anchor="middle" font-family="sans-serif" font-weight="700">INTEGRITY</text>
  <text x="570" y="92" fill="#4a5568" font-size="9" text-anchor="middle" font-family="sans-serif">Credibility</text>
  <text x="570" y="107" fill="#4a5568" font-size="9" text-anchor="middle" font-family="sans-serif">Transparency</text>
  <text x="570" y="122" fill="#4a5568" font-size="9" text-anchor="middle" font-family="sans-serif">Confidentiality</text>
</svg>