<svg viewBox="0 0 700 200" xmlns="http://www.w3.org/2000/svg">
  <rect width="700" height="200" fill="#f0f4f8" rx="8"/>
  <!-- Central hub -->
  <circle cx="350" cy="100" r="32" fill="#1B3A5C"/><text x="350" y="96" fill="white" font-size="9" text-anchor="middle" font-family="sans-serif" font-weight="700">PBS as</text><text x="350" y="108" fill="white" font-size="9" text-anchor="middle" font-family="sans-serif" font-weight="700">Coordinator</text>
  <!-- Surrounding nodes -->
  <circle cx="180" cy="50" r="25" fill="#2C5F8A"/><text x="180" y="54" fill="white" font-size="8" text-anchor="middle" font-family="sans-serif">NADRA</text>
  <circle cx="520" cy="50" r="25" fill="#2C5F8A"/><text x="520" y="54" fill="white" font-size="8" text-anchor="middle" font-family="sans-serif">FBR</text>
  <circle cx="180" cy="150" r="25" fill="#3D85C6"/><text x="180" y="154" fill="white" font-size="8" text-anchor="middle" font-family="sans-serif">BISP</text>
  <circle cx="520" cy="150" r="25" fill="#3D85C6"/><text x="520" y="148" fill="white" font-size="8" text-anchor="middle" font-family="sans-serif">Provincial</text><text x="520" y="159" fill="white" font-size="8" text-anchor="middle" font-family="sans-serif">Govts</text>
  <circle cx="100" cy="100" r="22" fill="#5BA0DB"/><text x="100" y="98" fill="white" font-size="7.5" text-anchor="middle" font-family="sans-serif">Private</text><text x="100" y="108" fill="white" font-size="7.5" text-anchor="middle" font-family="sans-serif">Sector</text>
  <circle cx="600" cy="100" r="22" fill="#5BA0DB"/><text x="600" y="98" fill="white" font-size="7.5" text-anchor="middle" font-family="sans-serif">Academia</text><text x="600" y="108" fill="white" font-size="7.5" text-anchor="middle" font-family="sans-serif">&amp; NGOs</text>
  <!-- Connecting lines -->
  <line x1="205" y1="62" x2="320" y2="88" stroke="#dee2e6" stroke-width="1.2"/><line x1="495" y1="62" x2="380" y2="88" stroke="#dee2e6" stroke-width="1.2"/>
  <line x1="205" y1="138" x2="320" y2="112" stroke="#dee2e6" stroke-width="1.2"/><line x1="495" y1="138" x2="380" y2="112" stroke="#dee2e6" stroke-width="1.2"/>
  <line x1="122" y1="100" x2="318" y2="100" stroke="#dee2e6" stroke-width="1.2"/><line x1="578" y1="100" x2="382" y2="100" stroke="#dee2e6" stroke-width="1.2"/>
</svg>