<svg width="700" height="200" viewBox="0 0 700 200" xmlns="http://www.w3.org/2000/svg">
  <rect width="700" height="200" fill="#f0f4f8" rx="8"/>
  <text x="350" y="25" font-size="12" fill="#1B3A5C" text-anchor="middle" font-family="sans-serif" font-weight="700">SEVEN PRINCIPLES</text>
  <g transform="translate(30,40)">
    <rect x="0" y="0" width="88" height="55" rx="5" fill="#1B3A5C"/><text x="44" y="24" fill="white" font-size="8" text-anchor="middle" font-family="sans-serif" font-weight="600">People</text><text x="44" y="36" fill="white" font-size="8" text-anchor="middle" font-family="sans-serif" font-weight="600">First</text>
    <rect x="96" y="0" width="88" height="55" rx="5" fill="#2C5F8A"/><text x="140" y="24" fill="white" font-size="8" text-anchor="middle" font-family="sans-serif" font-weight="600">Statistical</text><text x="140" y="36" fill="white" font-size="8" text-anchor="middle" font-family="sans-serif" font-weight="600">Purpose</text>
    <rect x="192" y="0" width="88" height="55" rx="5" fill="#3D85C6"/><text x="236" y="24" fill="white" font-size="8" text-anchor="middle" font-family="sans-serif" font-weight="600">Proportionate</text><text x="236" y="36" fill="white" font-size="8" text-anchor="middle" font-family="sans-serif" font-weight="600">Access</text>
    <rect x="288" y="0" width="88" height="55" rx="5" fill="#1B3A5C"/><text x="332" y="24" fill="white" font-size="8" text-anchor="middle" font-family="sans-serif" font-weight="600">Legal</text><text x="332" y="36" fill="white" font-size="8" text-anchor="middle" font-family="sans-serif" font-weight="600">Authority</text>
    <rect x="384" y="0" width="88" height="55" rx="5" fill="#2C5F8A"/><text x="428" y="30" fill="white" font-size="8" text-anchor="middle" font-family="sans-serif" font-weight="600">Governance</text>
    <rect x="480" y="0" width="88" height="55" rx="5" fill="#3D85C6"/><text x="524" y="24" fill="white" font-size="8" text-anchor="middle" font-family="sans-serif" font-weight="600">Trans-</text><text x="524" y="36" fill="white" font-size="8" text-anchor="middle" font-family="sans-serif" font-weight="600">parency</text>
    <rect x="576" y="0" width="58" height="55" rx="5" fill="#1B3A5C"/><text x="605" y="24" fill="white" font-size="7" text-anchor="middle" font-family="sans-serif" font-weight="600">Contin.</text><text x="605" y="36" fill="white" font-size="7" text-anchor="middle" font-family="sans-serif" font-weight="600">Improve</text>
  </g>
  <!-- Foundation bar -->
  <rect x="30" y="110" width="640" height="50" rx="6" fill="none" stroke="#1B3A5C" stroke-width="2"/>
  <text x="350" y="132" font-size="11" fill="#1B3A5C" text-anchor="middle" font-family="sans-serif" font-weight="600">NATIONAL DATA INFRASTRUCTURE</text>
  <text x="350" y="148" font-size="9" fill="#4a5568" text-anchor="middle" font-family="sans-serif" font-style="italic">Principles carry the burden of the entire infrastructure</text>
</svg>