<svg viewBox="0 0 700 200" xmlns="http://www.w3.org/2000/svg">
  <rect width="700" height="200" fill="#f0f4f8" rx="8"/>
  <text x="350" y="25" font-size="12" fill="#1B3A5C" text-anchor="middle" font-family="sans-serif" font-weight="700">ORGANISATIONAL MODELS — A SPECTRUM</text>
  <!-- Centralised -->
  <rect x="40" y="50" width="180" height="100" rx="8" fill="white" stroke="#1B3A5C" stroke-width="1.5"/>
  <circle cx="130" cy="85" r="18" fill="#1B3A5C"/><text x="130" y="89" fill="white" font-size="8" text-anchor="middle" font-family="sans-serif">CBS</text>
  <circle cx="90" cy="120" r="8" fill="#dee2e6"/><circle cx="130" cy="130" r="8" fill="#dee2e6"/><circle cx="170" cy="120" r="8" fill="#dee2e6"/>
  <line x1="130" y1="103" x2="90" y2="115" stroke="#dee2e6" stroke-width="1"/><line x1="130" y1="103" x2="130" y2="122" stroke="#dee2e6" stroke-width="1"/><line x1="130" y1="103" x2="170" y2="115" stroke="#dee2e6" stroke-width="1"/>
  <text x="130" y="165" font-size="9" fill="#1B3A5C" text-anchor="middle" font-family="sans-serif" font-weight="600">Centralised</text>
  <text x="130" y="177" font-size="8" fill="#4a5568" text-anchor="middle" font-family="sans-serif">(Netherlands)</text>
  <!-- Hybrid -->
  <rect x="260" y="50" width="180" height="100" rx="8" fill="white" stroke="#3D85C6" stroke-width="2"/>
  <circle cx="350" cy="82" r="16" fill="#3D85C6"/><text x="350" y="86" fill="white" font-size="7" text-anchor="middle" font-family="sans-serif">PBS</text>
  <circle cx="300" cy="115" r="12" fill="#2C5F8A"/><circle cx="350" cy="125" r="12" fill="#2C5F8A"/><circle cx="400" cy="115" r="12" fill="#2C5F8A"/>
  <line x1="350" y1="98" x2="300" y2="108" stroke="#dee2e6" stroke-width="1.2"/><line x1="350" y1="98" x2="350" y2="113" stroke="#dee2e6" stroke-width="1.2"/><line x1="350" y1="98" x2="400" y2="108" stroke="#dee2e6" stroke-width="1.2"/>
  <line x1="300" y1="125" x2="350" y2="125" stroke="#dee2e6" stroke-width="1" stroke-dasharray="3,2"/><line x1="350" y1="125" x2="400" y2="125" stroke="#dee2e6" stroke-width="1" stroke-dasharray="3,2"/>
  <text x="350" y="165" font-size="9" fill="#3D85C6" text-anchor="middle" font-family="sans-serif" font-weight="700">Hybrid (Phased)</text>
  <text x="350" y="177" font-size="8" fill="#4a5568" text-anchor="middle" font-family="sans-serif">(Pakistan's path)</text>
  <!-- Distributed -->
  <rect x="480" y="50" width="180" height="100" rx="8" fill="white" stroke="#2C5F8A" stroke-width="1.5"/>
  <circle cx="530" cy="82" r="12" fill="#2C5F8A"/><circle cx="580" cy="75" r="12" fill="#2C5F8A"/><circle cx="610" cy="110" r="12" fill="#2C5F8A"/><circle cx="530" cy="120" r="12" fill="#2C5F8A"/><circle cx="570" cy="100" r="8" fill="none" stroke="#2C5F8A" stroke-width="1"/>
  <line x1="530" y1="92" x2="570" y2="96" stroke="#dee2e6" stroke-width="1"/><line x1="580" y1="85" x2="570" y2="96" stroke="#dee2e6" stroke-width="1"/><line x1="610" y1="102" x2="570" y2="100" stroke="#dee2e6" stroke-width="1"/><line x1="530" y1="112" x2="570" y2="104" stroke="#dee2e6" stroke-width="1"/>
  <text x="570" y="165" font-size="9" fill="#2C5F8A" text-anchor="middle" font-family="sans-serif" font-weight="600">Distributed</text>
  <text x="570" y="177" font-size="8" fill="#4a5568" text-anchor="middle" font-family="sans-serif">(Estonia X-Road)</text>
</svg>